<?xml version="1.0" standalone="no"?>
<svg xmlns:xlink="http://www.w3.org/1999/xlink" id="wave" style="transform:rotate(180deg); transition: 0.3s" viewBox="0 0 1440 180" version="1.1" xmlns="http://www.w3.org/2000/svg"><defs><linearGradient id="sw-gradient-0" x1="0" x2="0" y1="1" y2="0"><stop stop-color="rgba(242, 255, 244, 1)" offset="0%"/><stop stop-color="rgba(242, 255, 244, 1)" offset="100%"/></linearGradient></defs><path style="transform:translate(0, 0px); opacity:1" fill="url(#sw-gradient-0)" d="M0,54L34.3,72C68.6,90,137,126,206,135C274.3,144,343,126,411,105C480,84,549,60,617,60C685.7,60,754,84,823,99C891.4,114,960,120,1029,123C1097.1,126,1166,126,1234,108C1302.9,90,1371,54,1440,33C1508.6,12,1577,6,1646,30C1714.3,54,1783,108,1851,111C1920,114,1989,66,2057,57C2125.7,48,2194,78,2263,96C2331.4,114,2400,120,2469,129C2537.1,138,2606,150,2674,147C2742.9,144,2811,126,2880,114C2948.6,102,3017,96,3086,78C3154.3,60,3223,30,3291,15C3360,0,3429,0,3497,21C3565.7,42,3634,84,3703,102C3771.4,120,3840,114,3909,114C3977.1,114,4046,120,4114,117C4182.9,114,4251,102,4320,96C4388.6,90,4457,90,4526,84C4594.3,78,4663,66,4731,69C4800,72,4869,90,4903,99L4937.1,108L4937.1,180L4902.9,180C4868.6,180,4800,180,4731,180C4662.9,180,4594,180,4526,180C4457.1,180,4389,180,4320,180C4251.4,180,4183,180,4114,180C4045.7,180,3977,180,3909,180C3840,180,3771,180,3703,180C3634.3,180,3566,180,3497,180C3428.6,180,3360,180,3291,180C3222.9,180,3154,180,3086,180C3017.1,180,2949,180,2880,180C2811.4,180,2743,180,2674,180C2605.7,180,2537,180,2469,180C2400,180,2331,180,2263,180C2194.3,180,2126,180,2057,180C1988.6,180,1920,180,1851,180C1782.9,180,1714,180,1646,180C1577.1,180,1509,180,1440,180C1371.4,180,1303,180,1234,180C1165.7,180,1097,180,1029,180C960,180,891,180,823,180C754.3,180,686,180,617,180C548.6,180,480,180,411,180C342.9,180,274,180,206,180C137.1,180,69,180,34,180L0,180Z"/></svg>
