<?xml version="1.0" standalone="no"?>
<svg xmlns:xlink="http://www.w3.org/1999/xlink" id="wave" style="transform:rotate(180deg); transition: 0.3s" viewBox="0 0 1440 170" version="1.1" xmlns="http://www.w3.org/2000/svg"><defs><linearGradient id="sw-gradient-0" x1="0" x2="0" y1="1" y2="0"><stop stop-color="rgba(255, 249, 234, 1)" offset="0%"/><stop stop-color="rgba(255, 249, 234, 1)" offset="100%"/></linearGradient></defs><path style="transform:translate(0, 0px); opacity:1" fill="url(#sw-gradient-0)" d="M0,17L30,28.3C60,40,120,62,180,79.3C240,96,300,108,360,96.3C420,85,480,51,540,45.3C600,40,660,62,720,85C780,108,840,130,900,130.3C960,130,1020,108,1080,102C1140,96,1200,108,1260,96.3C1320,85,1380,51,1440,39.7C1500,28,1560,40,1620,53.8C1680,68,1740,85,1800,99.2C1860,113,1920,125,1980,110.5C2040,96,2100,57,2160,48.2C2220,40,2280,62,2340,82.2C2400,102,2460,119,2520,121.8C2580,125,2640,113,2700,104.8C2760,96,2820,91,2880,87.8C2940,85,3000,85,3060,70.8C3120,57,3180,28,3240,25.5C3300,23,3360,45,3420,62.3C3480,79,3540,91,3600,85C3660,79,3720,57,3780,59.5C3840,62,3900,91,3960,110.5C4020,130,4080,142,4140,133.2C4200,125,4260,96,4290,82.2L4320,68L4320,170L4290,170C4260,170,4200,170,4140,170C4080,170,4020,170,3960,170C3900,170,3840,170,3780,170C3720,170,3660,170,3600,170C3540,170,3480,170,3420,170C3360,170,3300,170,3240,170C3180,170,3120,170,3060,170C3000,170,2940,170,2880,170C2820,170,2760,170,2700,170C2640,170,2580,170,2520,170C2460,170,2400,170,2340,170C2280,170,2220,170,2160,170C2100,170,2040,170,1980,170C1920,170,1860,170,1800,170C1740,170,1680,170,1620,170C1560,170,1500,170,1440,170C1380,170,1320,170,1260,170C1200,170,1140,170,1080,170C1020,170,960,170,900,170C840,170,780,170,720,170C660,170,600,170,540,170C480,170,420,170,360,170C300,170,240,170,180,170C120,170,60,170,30,170L0,170Z"/></svg>